<svg width="25" height="24" viewBox="0 0 25 24" fill="none" xmlns="http://www.w3.org/2000/svg">
<path d="M15.4688 17C14.6693 17.6224 13.619 18 12.4688 18C11.3185 18 10.2683 17.6224 9.46875 17" stroke="#E4EDFF" stroke-width="1.5" stroke-linecap="round"/>
<path d="M2.82014 13.2135C2.46712 10.9162 2.29061 9.76763 2.72492 8.74938C3.15922 7.73112 4.12278 7.03443 6.04989 5.64106L7.48974 4.6C9.88704 2.86667 11.0857 2 12.4688 2C13.8518 2 15.0505 2.86667 17.4478 4.6L18.8876 5.64106C20.8148 7.03443 21.7783 7.73112 22.2126 8.74938C22.6469 9.76763 22.4704 10.9162 22.1174 13.2135L21.8164 15.1724C21.3159 18.4289 21.0657 20.0572 19.8978 21.0286C18.7299 22 17.0224 22 13.6076 22H11.33C7.91509 22 6.20766 22 5.03975 21.0286C3.87184 20.0572 3.62162 18.4289 3.12118 15.1724L2.82014 13.2135Z" stroke="#E4EDFF" stroke-width="1.5" stroke-linejoin="round"/>
</svg>
