<svg width="12" height="13" viewBox="0 0 12 13" fill="none" xmlns="http://www.w3.org/2000/svg">
<path d="M9.0005 10.5C8.16475 11.1279 7.1258 11.5 6 11.5C3.23857 11.5 1 9.2614 1 6.5C1 3.73857 3.23857 1.5 6 1.5C8.7614 1.5 11 3.73857 11 6.5C11 6.9317 10.9453 7.35055 10.8425 7.75015C10.7309 8.18365 10.2573 8.385 9.83495 8.2364C9.47595 8.11005 9.31105 7.69985 9.401 7.33C9.4657 7.06395 9.5 6.786 9.5 6.5C9.5 4.56701 7.933 3 6 3C4.06701 3 2.5 4.56701 2.5 6.5C2.5 8.433 4.06701 10 6 10C6.65985 10 7.277 9.8174 7.8038 9.5" stroke="#F49200" stroke-width="0.75" stroke-linecap="round"/>
</svg>
