<svg width="12" height="13" viewBox="0 0 12 13" fill="none" xmlns="http://www.w3.org/2000/svg">
<path d="M8.5 6.5C8.5 7.8807 7.3807 9 6 9C4.61929 9 3.5 7.8807 3.5 6.5C3.5 5.11929 4.61929 4 6 4" stroke="#0F9D58" stroke-width="0.75" stroke-linecap="round"/>
<path d="M7 1.60002C6.6769 1.53443 6.34245 1.5 6 1.5C3.23857 1.5 1 3.73857 1 6.5C1 9.2614 3.23857 11.5 6 11.5C8.7614 11.5 11 9.2614 11 6.5C11 6.15755 10.9655 5.8231 10.9 5.5" stroke="#0F9D58" stroke-width="0.75" stroke-linecap="round"/>
<path d="M6.01562 6.48121L8.29208 4.20475M9.87068 2.67226L9.59408 1.67869C9.54313 1.515 9.34617 1.44977 9.21342 1.55826C8.49537 2.14504 7.71317 2.9354 8.35197 4.18204C9.63902 4.78222 10.3738 3.97287 10.9371 3.2926C11.0492 3.15725 10.9816 2.95378 10.8128 2.90497L9.87068 2.67226Z" stroke="#0F9D58" stroke-width="0.75" stroke-linecap="round" stroke-linejoin="round"/>
</svg>
