<svg width="25" height="24" viewBox="0 0 25 24" fill="none" xmlns="http://www.w3.org/2000/svg">
<path d="M15.4405 8C15.4405 5.23858 13.2019 3 10.4404 3C7.67901 3 5.44043 5.23858 5.44043 8C5.44043 10.7615 7.67901 13 10.4404 13C13.2019 13 15.4405 10.7615 15.4405 8Z" stroke="#E4EDFF" stroke-width="1.5" stroke-linecap="round" stroke-linejoin="round"/>
<path d="M17.1758 15.6742V14.2523C17.1758 13.2846 17.9603 12.5 18.9281 12.5C19.8959 12.5 20.6804 13.2846 20.6804 14.2523V15.6742M17.2453 20.9995H20.6313C21.6282 20.9995 22.4363 20.1929 22.4363 19.198V17.6942C22.4363 16.6992 21.6282 15.8926 20.6313 15.8926H17.2453C16.2485 15.8926 15.4404 16.6992 15.4404 17.6942V19.198C15.4404 20.1929 16.2485 20.9995 17.2453 20.9995Z" stroke="#E4EDFF" stroke-width="1.5" stroke-linecap="round" stroke-linejoin="round"/>
<path d="M3.44043 20C3.44043 16.134 6.57444 13 10.4404 13C11.9277 13 13.3066 13.4638 14.4405 14.2547" stroke="#E4EDFF" stroke-width="1.5" stroke-linecap="round" stroke-linejoin="round"/>
</svg>
