<svg width="25" height="24" viewBox="0 0 25 24" fill="none" xmlns="http://www.w3.org/2000/svg">
<g opacity="0.8">
<path d="M13.9385 11C13.9385 8.79086 12.1476 7 9.93848 7C7.72934 7 5.93848 8.79086 5.93848 11C5.93848 13.2091 7.72934 15 9.93848 15C12.1476 15 13.9385 13.2091 13.9385 11Z" stroke="#FCFCFE"/>
<path d="M11.9771 7.55773C11.9516 7.37547 11.9385 7.18927 11.9385 7C11.9385 4.79086 13.7294 3 15.9385 3C18.1476 3 19.9385 4.79086 19.9385 7C19.9385 9.20914 18.1476 11 15.9385 11C15.1939 11 14.4969 10.7966 13.8999 10.4423" stroke="#FCFCFE"/>
<path d="M15.9385 21C15.9385 17.6863 13.2522 15 9.93848 15C6.62477 15 3.93848 17.6863 3.93848 21" stroke="#FCFCFE"/>
<path d="M21.9385 17C21.9385 13.6863 19.2522 11 15.9385 11" stroke="#FCFCFE"/>
</g>
</svg>
